<svg version="1.1" viewBox="0 0 100 100" xmlns="http://www.w3.org/2000/svg">
	<rect width="100" height="100" rx="6" ry="6" fill="#008000"/>
	<path d="m42 62c-2.21 0-3.98 1.79-3.98 4s1.77 4 3.98 4 4-1.79 4-4-1.79-4-4-4zm-12-32v4h4l7.19 15.17-2.7 4.9c-.31.58-.49 1.23-.49 1.93 0 2.21 1.79 4 4 4h24v-4h-23.15c-.28 0-.5-.22-.5-.5 0-.09.02-.17.06-.24l1.79-3.26h14.9c1.5 0 2.81-.83 3.5-2.06l7.15-12.98c.16-.28.25-.61.25-.96 0-1.11-.9-2-2-2h-29.57l-1.9-4zm32 32c-2.21 0-3.98 1.79-3.98 4s1.77 4 3.98 4 4-1.79 4-4-1.79-4-4-4z" fill="#fafafa"/>
</svg>
