<svg version="1.1" viewBox="0 0 100 100" height="192" width="192" xmlns="http://www.w3.org/2000/svg">
	<g transform="translate(0,-197)" fill-rule="evenodd">
		<rect y="197" width="100" height="100" rx="6" ry="6" fill="#4688f4" stroke="#000" stroke-dasharray="0.52916666, 0.26458333000000001, 0.13229167000000000, 0.26458333000000001" stroke-linecap="round" stroke-linejoin="round" stroke-width=".26458"/>
		<path d="m50.903 232.9h-17.914v-4.4787h17.914zm-17.914 13.436h31.35v-4.4787h-31.35zm0 8.957h31.35v-4.4785h-31.35zm0 8.9572h31.35v-4.4785h-31.35zm44.786-33.589v42.546c0 2.4632-2.0154 4.4785-4.4786 4.4785h-44.786c-2.4632 0-4.4786-2.0153-4.4786-4.4785v-53.743c0-2.4632 2.0153-4.4787 4.4786-4.4787h33.589zm-4.4786 2.2393-13.436-13.436h-31.35v53.743h44.786z" fill="#f9f9f9" stroke-width=".26458"/>
	</g>
</svg>
