<svg version="1.1" viewBox="0 0 100 100" xmlns="http://www.w3.org/2000/svg">
	<rect width="100" height="100" rx="6" ry="6" fill="#008000"/>
	<g transform="matrix(2.9774 0 0 2.9774 28.511 22.997)" fill="#fafafa" stroke-width=".33586">
		<path d="m1.189 14c0 1.09.91 2 2 2h8.823c1.09 0 2-.91 2-2v-11c0-1.09-.91-2-2-2h-8.823c-1.09 0-2 .91-2 2h10.823v11z" overflow="visible"/>
		<path d="m.594 12a.50216.50216 0 10.093 1h1.813a.5.5 0 100-1h-1.813a.5.5 0 00-.093 0zm0-2a.50216.50216 0 10.093 1h1.813a.5.5 0 100-1h-1.813a.5.5 0 00-.093 0zm0-2a.50216.50216 0 10.093 1h1.813a.5.5 0 100-1h-1.813a.5.5 0 00-.093 0zm0-2a.50216.50216 0 10.093 1h1.813a.5.5 0 100-1h-1.813a.5.5 0 00-.093 0zm0-2a.50216.50216 0 10.093 1h1.813a.5.5 0 100-1h-1.813a.5.5 0 00-.093 0z" overflow="visible"/>
		<path d="m7 10c.328.066.666.007 1 0s.669.04 1 0c.624-.074 1.196-.462 1.523-.998a2.41 2.41 0 00.26-1.817 2.807 2.807 0 00-1.033-1.533 3.366 3.366 0 00-1.741-.652 3.737 3.737 0 00-2.565.746 3.69 3.69 0 00-1.382 2.285 3.647 3.647 0 00.185 1.895c.228.6.618 1.137 1.119 1.54.5.402 1.11.668 1.744.76a3.647 3.647 0 001.89-.226v-1c-.453.299-1 .453-1.542.437a2.677 2.677 0 01-1.513-.53 2.676 2.676 0 01-.932-1.304 2.677 2.677 0 01-.013-1.603 2.818 2.818 0 011.154-1.511 3.13 3.13 0 011.846-.489c.537.026 1.082.193 1.483.551.2.18.362.404.456.656.095.252.12.53.061.793-.054.24-.18.464-.355.637a1.294 1.294 0 01-.645.34v-.977a1.628 1.628 0 00-.595-.737 1.628 1.628 0 00-.905-.277c-.32 0-.64.098-.905.277-.266.18-.476.44-.595.737-.158.394-.152.856.033 1.238.186.383.55.678.967.762m1.036-.977a.708.708 0 01-.814.132.707.707 0 01-.378-.732.707.707 0 01.453-.554.706.706 0 01.703.131" letter-spacing="0" word-spacing="0"/>
	</g>
</svg>
