<svg version="1" width="192" height="192" viewBox="0 0 100 100" xmlns="http://www.w3.org/2000/svg">
	<rect width="100" height="100" rx="6" ry="6" fill="#4688f4" fill-rule="evenodd"/>
	<path d="m29.165 19.876a4.0168 4.0168 0 00-3.2656 4.0168v52.218a4.0168 4.0168 0 004.0168 4.0168h40.168a4.0168 4.0168 0 004.0168-4.0168v-37.91a4.0168 4.0168 0 00-1.1287-2.884l-14.312-14.316a4.0168 4.0168 0 00-2.884-1.1247h-25.86a4.0168 4.0168 0 00-.37356 0 4.0168 4.0168 0 00-.37758 0zm4.7679 8.0335h20.084v12.05h12.05v32.134h-32.134z" fill="#f9f9f9" overflow="visible"/>
</svg>
