<?xml version="1.0" standalone="no"?>
<!DOCTYPE svg PUBLIC "-//W3C//DTD SVG 20010904//EN"
 "http://www.w3.org/TR/2001/REC-SVG-20010904/DTD/svg10.dtd">
<svg version="1.0" xmlns="http://www.w3.org/2000/svg"
 width="700.000000pt" height="700.000000pt" viewBox="0 0 700.000000 700.000000"
 preserveAspectRatio="xMidYMid meet">
<metadata>
Created by potrace 1.11, written by Peter Selinger 2001-2013
</metadata>
<g transform="translate(0.000000,700.000000) scale(0.100000,-0.100000)"
fill="#000000" stroke="none">
<path d="M1215 6545 c-374 -82 -660 -408 -692 -786 l-6 -69 2367 0 2366 0 0
-2405 0 -2405 -2365 0 -2365 0 0 -44 c0 -69 25 -184 60 -274 86 -223 292 -427
514 -508 160 -58 36 -55 2266 -52 l2045 3 88 28 c153 48 268 117 378 226 136
136 220 300 249 483 8 54 10 742 8 2588 -3 2395 -4 2518 -22 2575 -99 329
-357 573 -678 640 -98 21 -4119 21 -4213 0z"/>
<path d="M182 5229 c-162 -80 -161 -313 1 -394 l51 -25 452 0 452 0 53 28 c74
38 111 93 117 171 5 72 -10 121 -51 168 -65 73 -57 73 -572 73 -448 0 -461 -1
-503 -21z"/>
<path d="M3187 4810 c-526 -66 -976 -363 -1225 -808 -142 -254 -205 -492 -205
-782 0 -293 73 -564 216 -802 84 -140 144 -216 257 -328 374 -370 916 -530
1430 -424 104 21 271 75 276 88 2 6 3 107 2 223 l-3 212 -50 -31 c-194 -122
-505 -184 -745 -149 -575 85 -1000 570 -1000 1145 0 586 426 1078 1035 1196
143 27 365 28 502 1 289 -56 504 -198 626 -411 108 -189 109 -425 2 -605 -65
-111 -223 -230 -332 -251 l-33 -6 0 212 0 212 -37 72 c-57 108 -192 239 -303
293 -47 23 -116 49 -153 58 -78 19 -238 22 -309 6 -243 -55 -445 -232 -524
-460 -127 -367 68 -748 431 -841 71 -18 97 -19 513 -11 485 10 487 10 640 82
495 231 693 841 444 1364 -28 56 -68 130 -91 163 -195 287 -505 485 -881 562
-118 24 -368 35 -483 20z m214 -1255 c24 -8 56 -25 71 -38 l27 -22 7 -223 c8
-253 15 -231 -84 -279 -195 -93 -424 53 -426 272 -1 121 59 221 166 274 50 25
74 31 128 31 36 0 86 -7 111 -15z"/>
<path d="M218 4368 c-49 -13 -116 -72 -139 -122 -47 -104 -1 -234 103 -287 38
-19 56 -20 504 -19 436 0 468 2 502 19 78 40 122 111 122 196 0 67 -20 114
-68 161 -64 62 -86 64 -561 63 -241 -1 -442 -5 -463 -11z"/>
<path d="M182 3479 c-162 -80 -161 -313 1 -394 l51 -25 452 0 452 0 53 28 c74
38 111 93 117 171 5 72 -10 121 -51 168 -65 73 -57 73 -572 73 -448 0 -461 -1
-503 -21z"/>
<path d="M218 2618 c-49 -13 -116 -72 -139 -122 -47 -104 -1 -234 103 -287 38
-19 56 -20 504 -19 436 0 468 2 502 19 78 40 122 111 122 196 0 67 -20 114
-68 161 -64 62 -86 64 -561 63 -241 -1 -442 -5 -463 -11z"/>
<path d="M182 1729 c-162 -80 -161 -313 1 -394 l51 -25 452 0 452 0 53 28 c74
38 111 93 117 171 5 72 -10 121 -51 168 -65 73 -57 73 -572 73 -448 0 -461 -1
-503 -21z"/>
</g>
</svg>
